HIERARCHY
ROOT Hips
{
  OFFSET 40.9192 92.6879 18.85
  CHANNELS 6 Xposition Yposition Zposition Zrotation Xrotation Yrotation
  JOINT LeftUpLeg
  {
    OFFSET 8.64259 1.95398 -2.38835
    CHANNELS 3 Zrotation Xrotation Yrotation
    JOINT LeftLeg
    {
      OFFSET 43.7702 0 0
      CHANNELS 3 Zrotation Xrotation Yrotation
      JOINT LeftFoot
      {
        OFFSET 40.6238 0 0
        CHANNELS 3 Zrotation Xrotation Yrotation
        JOINT LeftToeBase
        {
          OFFSET 12.7242 0 0
          CHANNELS 3 Zrotation Xrotation Yrotation
          End Site
          {
            OFFSET 0 0 0
          }
        }
      }
    }
  }
  JOINT RightUpLeg
  {
    OFFSET -8.2249 1.95398 -2.59336
    CHANNELS 3 Zrotation Xrotation Yrotation
    JOINT RightLeg
    {
      OFFSET 43.5653 0 0
      CHANNELS 3 Zrotation Xrotation Yrotation
      JOINT RightFoot
      {
        OFFSET 40.6238 0 0
        CHANNELS 3 Zrotation Xrotation Yrotation
        JOINT RightToeBase
        {
          OFFSET 12.7242 0 0
          CHANNELS 3 Zrotation Xrotation Yrotation
          End Site
          {
            OFFSET 0 0 0
          }
        }
      }
    }
  }
  JOINT Spine
  {
    OFFSET 0.165834 0.87714 6.61349
    CHANNELS 3 Zrotation Xrotation Yrotation
    JOINT Spine1
    {
      OFFSET 7.38963 1.71661e-005 0
      CHANNELS 3 Zrotation Xrotation Yrotation
      JOINT Spine2
      {
        OFFSET 11.9445 1.14441e-005 0
        CHANNELS 3 Zrotation Xrotation Yrotation
        JOINT Spine3
        {
          OFFSET 14.7254 4.19617e-005 0
          CHANNELS 3 Zrotation Xrotation Yrotation
          JOINT Spine4
          {
            OFFSET 10.9679 0 0
            CHANNELS 3 Zrotation Xrotation Yrotation
            JOINT RightShoulder
            {
              OFFSET 2.46616 -1.6653 3.69651
              CHANNELS 3 Zrotation Xrotation Yrotation
              JOINT RightArm
              {
                OFFSET 13.0012 0 0
                CHANNELS 3 Zrotation Xrotation Yrotation
                JOINT RightForeArm
                {
                  OFFSET 28.7848 1.52588e-005 0
                  CHANNELS 3 Zrotation Xrotation Yrotation
                  JOINT RightHand
                  {
                    OFFSET 26.5688 1.52588e-005 0
                    CHANNELS 3 Zrotation Xrotation Yrotation
                    End Site
                    {
                      OFFSET 0 0 0
                    }
                  }
                }
              }
            }
            JOINT LeftShoulder
            {
              OFFSET 2.38034 -1.29275 -3.7523
              CHANNELS 3 Zrotation Xrotation Yrotation
              JOINT LeftArm
              {
                OFFSET 16.3182 6.10351e-005 0
                CHANNELS 3 Zrotation Xrotation Yrotation
                JOINT LeftForeArm
                {
                  OFFSET 27.0901 0 0
                  CHANNELS 3 Zrotation Xrotation Yrotation
                  JOINT LeftHand
                  {
                    OFFSET 24.5451 1.52588e-005 0
                    CHANNELS 3 Zrotation Xrotation Yrotation
                    End Site
                    {
                      OFFSET 0 0 0
                    }
                  }
                }
              }
            }
            JOINT Neck
            {
              OFFSET 5.0226 -0.0266342 0
              CHANNELS 3 Zrotation Xrotation Yrotation
              JOINT Head
              {
                OFFSET 6.69363 2.86102e-005 0
                CHANNELS 3 Zrotation Xrotation Yrotation
                End Site
                {
                  OFFSET 0 0 0
                }
              }
            }
          }
        }
      }
    }
  }
}
MOTION
Frames:	7
Frame Time:	0.0416667
-220.076 78.6197 -209.26 90.2461 -17.3731 88.3452 -176.763 -13.7513 108.499 -50.8304 46.1037 18.1907 59.9747 -2.69215 -2.85243 71.2604 30.6347 -5.18367 155.666 52.5794 84.5741 -66.5744 -9.74636 10.4876 85.0556 -13.7961 -6.26701 162.323 -7.677 -9.80175 -5.07383 8.08946 -90.0689 10.765 -10.1357 0.799085 -0.866554 -10.0906 1.249 -23.7126 -9.90235 -2.31521 -3.69994 -9.90235 -2.31521 90.7179 -46.4362 -100.535 35.5136 -17.389 55.0617 -114.069 -7.13031 -89.3749 -75.8467 23.336 -25.6056 -93.7744 -44.0657 71.3796 -16.1357 -3.19595 6.29531 -20.1582 1.16705 -111.437 9.20218 9.22871 73.234 14.483 7.13216 -3.51316 1.05325 8.14805 7.01336 
-216.254 82.461 -204.686 89.8401 -30.5696 87.1844 -179.112 -11.2839 99.7237 -53.0151 34.0575 10.4983 49.6886 -8.13113 -5.7473 30.3762 -0.0395224 17.1317 163.53 49.4292 89.0203 -66.5075 -0.110037 8.35538 78.4712 -10.5961 -4.81634 51.2059 -0.91273 -14.4944 -3.65936 8.30006 -89.9122 10.316 -7.25061 0.797463 -1.33535 -7.20845 1.11742 -24.0284 -7.15342 -1.4299 -4.01574 -7.1534 -1.4299 91.9836 -43.734 -99.0966 37.7515 -14.8417 49.1723 -117.397 -23.6912 -100.055 -96.9416 29.7111 -21.5538 -93.3609 -39.5113 70.5847 -20.8563 5.58842 5.67918 -1.44516 -3.87681 -108.387 21.3249 2.61496 12.1946 14.1047 7.0677 -4.9789 3.82434 8.70352 8.64023 
-211.733 84.6578 -199.91 86.6314 -47.5425 84.838 -175.672 1.10098 89.7902 -67.1481 17.1103 2.67852 50.8961 -5.68408 -2.43136 36.9386 6.60776 12.0736 169.558 46.2952 95.4712 -57.6427 1.969 5.77554 68.3958 -4.30656 -2.46903 42.6449 0.243983 -6.26471 -1.60421 8.10332 -89.831 10.6757 -3.11698 0.62132 -0.991995 -3.08661 0.75802 -23.555 -3.15941 -0.34511 -3.54234 -3.1594 -0.345119 92.7676 -45.4528 -97.4405 34.4795 -14.3837 42.2242 -85.7927 -24.3932 -88.3242 -68.5614 39.3901 -52.6375 -94.7251 -40.191 68.5632 -23.7705 15.5646 8.27438 11.8223 -8.84427 -96.144 24.7961 0.565711 -1.76493 11.8835 6.45804 -3.80336 5.78444 7.94693 8.80972 
-205.331 85.9295 -192.755 86.3953 -53.8688 86.3736 -172.552 15.6324 93.3674 -77.3274 9.90094 0.877365 52.8374 -1.30946 0.240278 39.6442 9.41237 15.1073 169.526 36.7006 98.8611 -54.9969 1.87849 5.72239 78.0248 -6.91188 -3.10753 29.0297 0.187739 -2.56881 -0.70876 8.24284 -90.1228 10.3893 -1.46821 -0.116581 -1.28067 -1.47194 -0.0518331 -23.8226 -1.36528 -0.552564 -3.80999 -1.36529 -0.552566 92.348 -45.2762 -98.1604 31.7774 -15.0512 31.8612 -48.4585 -20.7502 -78.1148 -36.7989 22.0107 -61.3104 -95.5399 -42.1697 67.9457 -26.3391 16.7556 11.8258 10.6756 0.308763 -84.3954 24.7621 1.02799 0.273208 10.5178 6.28993 -0.112137 7.7963 6.89489 6.48343 
-198.015 85.0831 -184.071 87.4071 -57.1908 89.2714 -172.91 29.6195 93.8329 -82.5086 8.10871 1.28122 57.1242 2.74504 3.93066 42.2984 12.0024 14.2871 170.569 30.1247 101.118 -60.2845 2.17255 3.89795 84.8694 -10.6849 -4.15565 31.6 0.246752 -2.65951 -0.151395 8.51696 -90.5023 9.83676 -0.529379 -0.954035 -1.83441 -0.570885 -0.929832 -24.367 -0.218205 -1.06902 -4.35433 -0.218197 -1.06903 90.2245 -44.4436 -101.826 28.4336 -14.5 20.2752 -26.217 -16.1863 -74.2822 -19.3717 4.79033 -30.3066 -96.3569 -46.0212 68.0077 -27.8038 16.6376 15.825 9.87942 1.09615 -71.6454 26.802 1.62601 2.21915 11.9787 6.29614 5.47811 8.78696 5.19389 1.92152 
-190.504 84.0421 -175.238 86.5983 -63.7494 90.4184 -173.388 42.6723 96.3986 -79.6061 4.97332 1.29827 63.2355 5.21761 1.58833 42.3037 12.5187 18.8653 174.516 23.0658 102.1 -62.2896 1.89864 1.45271 89.3212 -14.1933 -4.91687 38.4307 0.400446 -3.41759 0.893587 8.66663 -90.4828 9.55031 1.5638 -1.08047 -2.12014 1.51475 -1.14825 -24.6622 1.81624 -0.560417 -4.64955 1.81623 -0.560418 88.8924 -46.6669 -103.392 23.2538 -15.5534 6.803 -18.9559 -7.38025 -74.6172 -9.89045 -0.771286 -0.312161 -97.4466 -46.2486 66.428 -31.3824 16.0892 24.1677 8.07086 4.44341 -62.5052 33.1299 2.30975 3.13299 17.6509 5.11021 3.27229 4.0316 4.33992 3.14596 
-182.706 83.2172 -165.03 81.3757 -68.8713 82.6404 -172.176 51.9291 95.7095 -67.5936 2.1807 0.0679759 64.633 3.66998 -0.0563261 44.4408 14.6416 17.798 176.811 16.2786 97.3082 -63.1579 -0.459729 -1.56097 89.2364 -14.8093 -5.13848 48.0529 0.383635 -5.60633 1.6198 8.28917 -89.9993 10.3025 3.22737 -0.279474 -1.36456 3.21196 -0.421409 -23.9309 3.16201 0.704401 -3.91821 3.162 0.704392 90.3767 -41.9083 -102.229 26.5816 -17.6295 -1.61691 -22.1078 -6.18679 -82.3099 -28.3659 -0.303238 -2.96749 -94.9422 -44.3524 69.6437 -41.5761 20.9379 37.4325 5.72467 5.0989 -61.8221 36.8074 2.65451 3.33048 17.8964 4.36809 3.94951 1.64135 3.34601 2.59197 
